<?xml version="1.0" encoding="UTF-8"?>
<svg version="1.1" xmlns="http://www.w3.org/2000/svg" width="299" height="285">
<path d="M0 0 C2.44262695 -0.38818359 2.44262695 -0.38818359 5.48828125 -0.3984375 C6.58720703 -0.40230469 7.68613281 -0.40617187 8.81835938 -0.41015625 C10.54795898 -0.39275391 10.54795898 -0.39275391 12.3125 -0.375 C13.45396484 -0.38660156 14.59542969 -0.39820313 15.77148438 -0.41015625 C16.87427734 -0.40628906 17.97707031 -0.40242188 19.11328125 -0.3984375 C20.12173096 -0.39505371 21.13018066 -0.39166992 22.16918945 -0.38818359 C25.51053878 0.0700092 27.32041095 0.96566031 30 3 C31.49462891 5.02685547 31.49462891 5.02685547 32.7265625 7.3671875 C33.19513672 8.24181641 33.66371094 9.11644531 34.14648438 10.01757812 C34.63439453 10.96052734 35.12230469 11.90347656 35.625 12.875 C36.14642578 13.85662109 36.66785156 14.83824219 37.20507812 15.84960938 C38.81725901 18.8926739 40.41053685 21.94501811 42 25 C42.93441142 26.78410796 43.86928541 28.56797375 44.8046875 30.3515625 C46.15611909 32.93130229 47.50611784 35.51174179 48.85180664 38.09448242 C56.2134842 52.20469406 63.90666725 66.14237237 71.70336914 80.01635742 C74.27570251 84.61417616 76.67340321 89.27277835 79 94 C80.14888008 89.89061928 80.10347407 85.95177558 80.05004883 81.71484375 C80.04063011 80.46539474 80.04063011 80.46539474 80.03102112 79.19070435 C80.01718646 77.38461681 80.00125439 75.5785444 79.98346901 73.77249146 C79.9568182 70.9146546 79.93895722 68.05689526 79.92399597 65.19897461 C79.88124943 57.07423897 79.83344363 48.94965791 79.75317383 40.82519531 C79.70469675 35.85393001 79.67566977 30.88287825 79.65942955 25.91140747 C79.64952133 24.01672177 79.63229514 22.1220598 79.60764503 20.22750854 C79.57395458 17.57979162 79.56501699 14.93306067 79.56176758 12.28515625 C79.54581543 11.50165802 79.52986328 10.71815979 79.51342773 9.91091919 C79.53320784 6.38121446 79.71454463 4.38534999 81.84410095 1.51055908 C84.7775051 -0.54476919 86.73742915 -0.45778436 90.296875 -0.390625 C92.10478516 -0.37128906 92.10478516 -0.37128906 93.94921875 -0.3515625 C95.20347656 -0.31804688 96.45773438 -0.28453125 97.75 -0.25 C99.01972656 -0.23195312 100.28945312 -0.21390625 101.59765625 -0.1953125 C104.73253077 -0.14817153 107.8658856 -0.08237664 111 0 C116.31491132 9.78341361 114.91288876 21.73758767 115.05029297 32.58911133 C115.08979576 35.37381692 115.1722518 38.15164324 115.29638672 40.93383789 C116.18126612 61.24720465 112.62729881 75.22473621 100.81072998 92.33944702 C98.46059189 95.79256647 96.4227373 99.36892558 94.421875 103.03125 C87.89332845 114.53307552 81.29077312 125.96608166 74.33203125 137.21484375 C70.20258487 143.89013833 66.26040697 150.67246401 62.5 157.5625 C59.58534785 162.86541227 56.291396 167.92536928 53 173 C52.34 172.67 51.68 172.34 51 172 C51.235979 171.45287354 51.47195801 170.90574707 51.71508789 170.34204102 C52.04758545 169.57045654 52.38008301 168.79887207 52.72265625 168.00390625 C53.09414795 167.1437793 53.46563965 166.28365234 53.84838867 165.39746094 C54.66437071 163.49213549 55.47038657 161.58251386 56.2668457 159.66894531 C58.16594491 155.12684792 60.09288175 150.71149765 62.5078125 146.41796875 C66.41488918 139.51634078 66.41488918 139.51634078 66.43945312 131.87646484 C64.36778525 127.22156693 61.42854276 123.19177157 58.43798828 119.09082031 C56.20414307 115.84283213 54.55257109 112.37050122 52.875 108.8125 C50.38318199 103.67873933 47.74764318 98.68097229 44.875 93.75 C41.80261349 88.46839255 38.986086 83.12025216 36.32421875 77.62109375 C34.99865767 74.99734305 33.52406657 72.51228131 32 70 C31.82396334 76.29143796 31.6588306 82.58310459 31.5 88.875 C31.47565887 89.82773804 31.45131775 90.78047607 31.42623901 91.76208496 C31.1497214 102.82972853 30.95894963 113.8895361 31.00390625 124.9609375 C31.0074411 125.91608246 31.01097595 126.87122742 31.01461792 127.85531616 C31.03513143 132.44665394 31.07097882 137.03735625 31.125 141.62841797 C31.13690389 143.29915234 31.14863198 144.96988797 31.16015625 146.640625 C31.17365616 147.3867807 31.18715607 148.1329364 31.20106506 148.90170288 C31.22336775 153.59858789 30.58919612 157.57794958 29 162 C25.79810287 165.20189713 22.09369853 164.29542548 17.72851562 164.32226562 C16.51873047 164.31904297 15.30894531 164.31582031 14.0625 164.3125 C12.25362305 164.33666992 12.25362305 164.33666992 10.40820312 164.36132812 C9.25384766 164.36197266 8.09949219 164.36261719 6.91015625 164.36328125 C5.84933838 164.36626221 4.78852051 164.36924316 3.69555664 164.37231445 C1 164 1 164 -0.64508343 162.87290955 C-2.62637258 160.13416131 -2.37470813 158.01991923 -2.3742218 154.66113281 C-2.37819621 154.01548496 -2.38217061 153.36983711 -2.38626546 152.70462418 C-2.39590396 150.537235 -2.38406167 148.37049605 -2.37231445 146.203125 C-2.37474192 144.65091711 -2.3784608 143.09871079 -2.38337708 141.54650879 C-2.39279596 137.32752807 -2.38335235 133.10877894 -2.37004495 128.88981628 C-2.3587435 124.47895261 -2.36283694 120.06810055 -2.36479187 115.65722656 C-2.36567526 108.24931038 -2.35458507 100.84148564 -2.33618164 93.43359375 C-2.31501332 84.86357542 -2.31150387 76.29369107 -2.3177436 67.72365189 C-2.32343431 59.48660764 -2.31779506 51.24961067 -2.30657005 43.01257324 C-2.30192018 39.50385668 -2.30105189 35.995169 -2.3031559 32.4864502 C-2.30503677 28.35620114 -2.29695047 24.22608884 -2.2810955 20.09587097 C-2.27684569 18.57810532 -2.27600677 17.06032582 -2.27878571 15.54255676 C-2.28199824 13.47450916 -2.27294961 11.40687253 -2.26069641 9.33886719 C-2.25864354 8.18038269 -2.25659067 7.02189819 -2.25447559 5.82830811 C-2 3 -2 3 0 0 Z " fill="#FDFDFD" transform="translate(54,48)"/>
<path d="M0 0 C0.66 0 1.32 0 2 0 C1.37510436 3.68954339 0.34362278 6.87436655 -1.125 10.3125 C-1.56457031 11.34503906 -2.00414062 12.37757812 -2.45703125 13.44140625 C-5.28719059 19.96868513 -8.13280384 26.48890325 -11 33 C-10.03320312 32.97679687 -9.06640625 32.95359375 -8.0703125 32.9296875 C5.694098 32.73889369 17.7163224 33.92343402 28.3125 43.625 C37.17642564 53.1514817 39.31342853 65.79376808 39.2746582 78.37426758 C39.27976913 79.25217453 39.28488007 80.13008148 39.29014587 81.03459167 C39.30391871 83.90464307 39.30309427 86.77445096 39.30078125 89.64453125 C39.30467527 91.66175931 39.30901138 93.67898656 39.31376648 95.69621277 C39.32120253 99.91314355 39.32095669 104.12999058 39.31567383 108.34692383 C39.30988641 113.71957752 39.32680557 119.09188566 39.3500185 124.46448231 C39.36483517 128.62808701 39.36561673 132.79161003 39.36250877 136.95523643 C39.36301812 138.93454357 39.36818234 140.91385574 39.37832069 142.89313698 C39.44967447 158.77116494 39.15329279 173.32115841 28.2890625 185.99609375 C18.84388988 195.26192765 5.84775695 197.14994052 -6.828125 197.16796875 C-7.65777771 197.17129715 -8.48743042 197.17462555 -9.34222412 197.17805481 C-11.09028575 197.18309355 -12.8383569 197.18546408 -14.58642578 197.18530273 C-17.22835578 197.18748215 -19.8698628 197.20565104 -22.51171875 197.22460938 C-38.16499242 197.27763781 -53.03462621 196.33428868 -65 185 C-74.80454834 173.44305501 -75.22471345 159.26350996 -75.4375 144.75 C-75.50614258 142.86087891 -75.50614258 142.86087891 -75.57617188 140.93359375 C-75.68370783 131.92862667 -73.89436697 126.46866299 -69 119 C-68.03581127 117.31618307 -67.08247536 115.62610055 -66.140625 113.9296875 C-65.17849476 112.2439853 -64.21492251 110.55910542 -63.25 108.875 C-62.47946289 107.52801025 -62.47946289 107.52801025 -61.69335938 106.15380859 C-57.5685628 98.95830187 -53.38001323 91.80182491 -49.15625 84.6640625 C-47.06771579 81.12976499 -45.02882132 77.56888114 -43 74 C-42.01 74.33 -41.02 74.66 -40 75 C-40.00666183 76.49884483 -40.00666183 76.49884483 -40.01345825 78.02796936 C-40.05405544 87.45882312 -40.08400893 96.88965907 -40.10362434 106.32058048 C-40.11404792 111.1687542 -40.12818108 116.01685721 -40.15087891 120.86499023 C-40.17265813 125.54637278 -40.18457936 130.22768743 -40.18975449 134.90911674 C-40.19344112 136.69242865 -40.20064019 138.47573696 -40.21146011 140.25901985 C-40.22604257 142.76268583 -40.22797513 145.26607357 -40.22705078 147.76977539 C-40.23424133 148.50201828 -40.24143188 149.23426117 -40.24884033 149.98869324 C-40.23033599 154.64060357 -39.58436994 158.62307131 -38 163 C-34.323503 166.1800461 -31.13434769 166.38445189 -26.37890625 166.3984375 C-24.48108398 166.40423828 -24.48108398 166.40423828 -22.54492188 166.41015625 C-21.23072266 166.39855469 -19.91652344 166.38695312 -18.5625 166.375 C-17.25216797 166.38660156 -15.94183594 166.39820313 -14.59179688 166.41015625 C-13.32529297 166.40628906 -12.05878906 166.40242187 -10.75390625 166.3984375 C-9.02636108 166.39336182 -9.02636108 166.39336182 -7.26391602 166.38818359 C-3.53643882 165.94486781 -1.15905944 165.01625093 2 163 C4.72124809 159.2689865 4.28117767 154.98189756 4.25878906 150.56298828 C4.2622937 149.71372772 4.26579834 148.86446716 4.26940918 147.98947144 C4.27820887 145.18300187 4.27238249 142.37678462 4.265625 139.5703125 C4.26697241 137.61742098 4.26891357 135.66452978 4.27142334 133.7116394 C4.27437243 129.61778572 4.27008478 125.52401932 4.26074219 121.43017578 C4.24936291 116.18900137 4.25589885 110.94803215 4.26788712 105.70686531 C4.27512439 101.67306989 4.27280893 97.63932287 4.26763153 93.60552597 C4.26629942 91.67347057 4.26792737 89.74141074 4.27259064 87.8093605 C4.27768484 85.10472281 4.26990431 82.40041407 4.25878906 79.69580078 C4.26283752 78.90079163 4.26688599 78.10578247 4.27105713 77.28668213 C4.23703344 72.80472996 3.69179441 69.2242382 2 65 C-10.46330873 62.65099633 -22.39568496 63.12597185 -35 64 C-35.33 63.01 -35.66 62.02 -36 61 C-35.34 61 -34.68 61 -34 61 C-33.7421875 60.14019531 -33.484375 59.28039062 -33.21875 58.39453125 C-31.9551405 54.87505479 -30.38578763 51.91420629 -28.5 48.6875 C-28.15179199 48.08848877 -27.80358398 47.48947754 -27.44482422 46.87231445 C-26.30249109 44.91133439 -25.151774 42.95544784 -24 41 C-23.20033817 39.6355237 -22.40086173 38.27093874 -21.6015625 36.90625 C-19.50964764 33.33986319 -17.41030882 29.77790351 -15.30859375 26.21728516 C-13.07816177 22.43803455 -10.85135839 18.65665131 -8.625 14.875 C-8.01809326 13.84572388 -8.01809326 13.84572388 -7.39892578 12.7956543 C-4.8985332 8.54936078 -2.43647738 4.28330497 0 0 Z " fill="#FDFDFD" transform="translate(210,50)"/>
<path d="M0 0 C0.7115625 0.00128906 1.423125 0.00257812 2.15625 0.00390625 C6.19936022 0.07179429 8.29831499 0.52415749 12 2.375 C2.595 2.87 2.595 2.87 -7 3.375 C-8.82125761 7.92814402 -9.26303894 10.10179059 -9.31884766 14.81762695 C-9.33871735 16.09857742 -9.35858704 17.37952789 -9.37905884 18.69929504 C-9.39093344 20.08728869 -9.4025964 21.47528417 -9.4140625 22.86328125 C-9.43278405 24.29104215 -9.4523582 25.7187921 -9.4727478 27.14653015 C-9.52397101 30.89305146 -9.56364894 34.63960861 -9.60089111 38.3862915 C-9.64099253 42.21399732 -9.69205679 46.04155535 -9.7421875 49.86914062 C-9.83883049 57.37099217 -9.92327213 64.87291552 -10 72.375 C-10.33 72.375 -10.66 72.375 -11 72.375 C-11.22340882 63.57840925 -11.42489017 54.78166905 -11.59840012 45.98395157 C-11.67965722 41.89879266 -11.76845675 37.81408852 -11.87451172 33.72949219 C-11.97658574 29.78751737 -12.05882298 25.84558153 -12.12732697 21.90288544 C-12.15694424 20.39884604 -12.19370478 18.89492977 -12.2377243 17.39124298 C-12.29817756 15.28447234 -12.33319504 13.17869357 -12.36230469 11.07128906 C-12.38895203 9.87215881 -12.41559937 8.67302856 -12.4430542 7.43756104 C-12 4.375 -12 4.375 -10.21173096 1.98529053 C-6.97035292 -0.37465309 -3.84660041 -0.1324011 0 0 Z " fill="#F2F2F2" transform="translate(146,47.625)"/>
<path d="M0 0 C2.11384707 1.90246236 3.47509615 3.71984265 5.0625 6.125 C6.69145453 9.05064042 6.69145453 9.05064042 9 10 C9 10.66 9 11.32 9 12 C11.475 12.99 11.475 12.99 14 14 C13.67 14.99 13.34 15.98 13 17 C7.48591031 13.26464892 3.41706653 9.76629977 0 4 C0 2.68 0 1.36 0 0 Z " fill="#F2F2F2" transform="translate(140,224)"/>
<path d="M0 0 C0.99 0.33 1.98 0.66 3 1 C2 4 2 4 -0.5625 6.5 C-3.34905007 8.7760635 -3.34905007 8.7760635 -3 12 C-6.33333333 15 -6.33333333 15 -9 15 C-4.47058824 2.23529412 -4.47058824 2.23529412 0 0 Z " fill="#F6F6F6" transform="translate(155,147)"/>
<path d="M0 0 C3.35914922 2.23943282 3.81681636 3.26842083 5 7 C5 7.99 5 8.98 5 10 C5.66 10 6.32 10 7 10 C7.69699552 11.45381897 8.38233866 12.91322953 9.0625 14.375 C9.44535156 15.18710938 9.82820313 15.99921875 10.22265625 16.8359375 C10.47917969 17.55007812 10.73570313 18.26421875 11 19 C10.67 19.66 10.34 20.32 10 21 C7.31126784 16.80100126 4.69061096 12.56250259 2.1875 8.25 C1.55908203 7.17492187 1.55908203 7.17492187 0.91796875 6.078125 C0 4 0 4 0 0 Z " fill="#F4F4F4" transform="translate(92,125)"/>
<path d="M0 0 C1.27133789 0.00966797 1.27133789 0.00966797 2.56835938 0.01953125 C3.8899707 0.04466797 3.8899707 0.04466797 5.23828125 0.0703125 C6.57729492 0.08384766 6.57729492 0.08384766 7.94335938 0.09765625 C10.14610439 0.12121502 12.34830713 0.15410921 14.55078125 0.1953125 C14.88078125 0.8553125 15.21078125 1.5153125 15.55078125 2.1953125 C7.83476235 3.61254046 0.30727238 2.85178636 -7.44921875 2.1953125 C-4.2960709 0.09321393 -3.58818794 -0.0481636 0 0 Z " fill="#F0F0F0" transform="translate(185.44921875,216.8046875)"/>
<path d="M0 0 C3.34218632 -0.37992882 4.66954796 -0.23536171 7.45703125 1.75 C8.23433594 2.4925 9.01164063 3.235 9.8125 4 C10.60269531 4.7425 11.39289063 5.485 12.20703125 6.25 C13.09455078 7.11625 13.09455078 7.11625 14 8 C13.67 8.99 13.34 9.98 13 11 C12.278125 10.236875 11.55625 9.47375 10.8125 8.6875 C6.54777137 4.48293679 6.54777137 4.48293679 1 3 C0.67 2.01 0.34 1.02 0 0 Z " fill="#F6F6F6" transform="translate(226,88)"/>
<path d="M0 0 C0.66 0 1.32 0 2 0 C2 0.99 2 1.98 2 3 C0.44424022 3.84584998 -1.1199612 4.67618399 -2.6875 5.5 C-3.99267578 6.19609375 -3.99267578 6.19609375 -5.32421875 6.90625 C-8.11788829 8.04818792 -10.01629113 8.21504208 -13 8 C-12 6 -12 6 -9.53125 5 C-7.51041667 4.33333333 -5.48958333 3.66666667 -3.46875 3 C-0.85311602 2.25714944 -0.85311602 2.25714944 0 0 Z " fill="#F4F4F4" transform="translate(233,236)"/>
<path d="M0 0 C1 3 1 3 0.00390625 5.04296875 C-0.47175781 5.75066406 -0.94742188 6.45835937 -1.4375 7.1875 C-1.91058594 7.90292969 -2.38367188 8.61835938 -2.87109375 9.35546875 C-3.24363281 9.89816406 -3.61617188 10.44085938 -4 11 C-4.66 10.67 -5.32 10.34 -6 10 C-5.38302681 8.51746733 -4.75616104 7.03904826 -4.125 5.5625 C-3.60292969 4.32693359 -3.60292969 4.32693359 -3.0703125 3.06640625 C-2 1 -2 1 0 0 Z " fill="#F2F2F2" transform="translate(111,210)"/>
<path d="M0 0 C7.625 0.875 7.625 0.875 11 2 C10.67 2.66 10.34 3.32 10 4 C6.04 3.67 2.08 3.34 -2 3 C-1.34 2.01 -0.68 1.02 0 0 Z " fill="#F6F6F6" transform="translate(209,83)"/>
<path d="M0 0 C0.75 1.5625 0.75 1.5625 1 4 C-0.13084437 6.50286409 -1.52139516 8.67007722 -3 11 C-3.66 11 -4.32 11 -5 11 C-5.33 9.68 -5.66 8.36 -6 7 C-5.34 7 -4.68 7 -4 7 C-2.68 4.69 -1.36 2.38 0 0 Z " fill="#F7F7F7" transform="translate(163,120)"/>
<path d="M0 0 C0.33 1.32 0.66 2.64 1 4 C0.01 4.495 0.01 4.495 -1 5 C-1 5.66 -1 6.32 -1 7 C-3 8.625 -3 8.625 -5 10 C-4.4454626 6.67277559 -3.75986957 3.8986087 -2 1 C-1.34 0.67 -0.68 0.34 0 0 Z " fill="#F5F5F5" transform="translate(143,168)"/>
<path d="M0 0 C0.66 0 1.32 0 2 0 C4.04169485 2.90548882 5 4.40142046 5 8 C2.00675737 6.9024777 1.15389099 6.32317108 -0.25 3.375 C-0.4975 2.59125 -0.745 1.8075 -1 1 C-0.67 0.67 -0.34 0.34 0 0 Z " fill="#F1F1F1" transform="translate(130,141)"/>
<path d="M0 0 C2.475 0.99 2.475 0.99 5 2 C5 3.32 5 4.64 5 6 C1 6 1 6 -1 5 C-0.67 3.35 -0.34 1.7 0 0 Z " fill="#F2F2F2" transform="translate(83,111)"/>
<path d="M0 0 C0.99 0 1.98 0 3 0 C1.8141763 3.37503669 0.72426311 5.64722731 -2 8 C-2.33 7.34 -2.66 6.68 -3 6 C-2.06553465 3.96855359 -1.06775224 1.96466413 0 0 Z " fill="#F6F6F6" transform="translate(138,162)"/>
<path d="M0 0 C2.05078125 0.03255208 4.1015625 0.06510417 6.15234375 0.09765625 C6.48234375 1.08765625 6.81234375 2.07765625 7.15234375 3.09765625 C0.52734375 3.34765625 0.52734375 3.34765625 -2.84765625 1.09765625 C-1.84765625 0.09765625 -1.84765625 0.09765625 0 0 Z " fill="#F3F3F3" transform="translate(72.84765625,47.90234375)"/>
<path d="M0 0 C2.97 0.99 5.94 1.98 9 3 C9 3.66 9 4.32 9 5 C6.03 4.01 3.06 3.02 0 2 C0 1.34 0 0.68 0 0 Z " fill="#F3F3F3" transform="translate(155,240)"/>
<path d="M0 0 C3.05882701 1.52941351 3.68951234 3.94219546 5 7 C4.67 7.66 4.34 8.32 4 9 C1.47740939 7.02579865 1.0070192 6.03254358 0.3125 2.8125 C0.209375 1.884375 0.10625 0.95625 0 0 Z " fill="#F4F4F4" transform="translate(104,147)"/>
<path d="M0 0 C3 1 3 1 4.25 2.875 C5 5 5 5 4 8 C4 7.34 4 6.68 4 6 C3.34 6 2.68 6 2 6 C0 1.125 0 1.125 0 0 Z " fill="#F7F7F7" transform="translate(115,113)"/>
<path d="M0 0 C0.66 0 1.32 0 2 0 C1.125 4.75 1.125 4.75 0 7 C-0.66 7 -1.32 7 -2 7 C-1.125 2.25 -1.125 2.25 0 0 Z " fill="#EFF2F1" transform="translate(210,50)"/>
</svg>
